<?xml version="1.0" encoding="utf-8"?>
<!-- Generator: Adobe Illustrator 19.2.1, SVG Export Plug-In . SVG Version: 6.00 Build 0)  -->
<svg version="1.1" id="Слой_1" xmlns="http://www.w3.org/2000/svg" xmlns:xlink="http://www.w3.org/1999/xlink" x="0px" y="0px"
	 viewBox="0 0 60 60" style="enable-background:new 0 0 60 60;" xml:space="preserve">
<style type="text/css">
	.st0{fill:none;stroke:#15173F;stroke-width:1.15;stroke-linecap:round;stroke-linejoin:round;}
</style>
<title>currency_exchange</title>
<path class="st0" d="M22.8,14.3c9.3-3.6,19.7,1,23.3,10.3c0.8,2,1.2,4.2,1.2,6.4"/>
<path class="st0" d="M15.3,19.7c1-1.3,2.2-2.4,3.6-3.3"/>
<path class="st0" d="M12.4,24.9c0.2-0.6,0.5-1.2,0.8-1.8"/>
<path class="st0" d="M29.3,48.9c-9.9,0-17.9-8-18-17.9"/>
<path class="st0" d="M42,43.7c-1.5,1.5-3.3,2.7-5.2,3.6"/>
<path class="st0" d="M46.4,36.5c-0.3,0.9-0.7,1.8-1.1,2.6"/>
<polyline class="st0" points="8.4,34.6 11.3,31 14.5,33.8 "/>
<polyline class="st0" points="50.2,27.4 47.3,31 44,28.1 "/>
<path class="st0" d="M25.3,34.9c0,2.2,1.7,4,3.9,4.1c2.2,0,4-1.7,4.1-3.9c0-2.2-1.7-4-3.9-4.1c0,0,0,0-0.1,0c-2.2,0-3.9-1.8-3.9-4
	s1.8-3.9,4-3.9c2.1,0,3.9,1.8,3.9,3.9"/>
<line class="st0" x1="29.3" y1="20.2" x2="29.3" y2="22.7"/>
<line class="st0" x1="29.2" y1="39" x2="29.2" y2="41.7"/>
</svg>
